<svg xmlns="http://www.w3.org/2000/svg" enable-background="new 0 0 66 66" viewBox="0 0 66 66" id="api-design">
  <path fill="none" stroke="#000" stroke-linecap="round" stroke-linejoin="round" stroke-miterlimit="10" stroke-width="1.5" d="M35.8,64.2H6.2C3.9,64.2,2,62.4,2,60V6c0-2.3,1.9-4.2,4.2-4.2h29.6C38.1,1.8,40,3.6,40,6v54
		C40,62.4,38.1,64.2,35.8,64.2z"></path>
  <path fill="none" stroke="#000" stroke-linecap="round" stroke-linejoin="round" stroke-miterlimit="10" stroke-width="1.5" d="M8.3,4.8H6.7c-0.3,0-0.5,0-0.8,0C5.6,4.9,5.4,5,5.2,5.2C4.9,5.6,5,6.2,5,6.7v1.6v6.3"></path>
  <line x1="5" x2="5" y1="20.7" y2="23.1" fill="none" stroke="#000" stroke-linecap="round" stroke-linejoin="round" stroke-miterlimit="10" stroke-width="1.5"></line>
  <line x1="18.9" x2="23.1" y1="61" y2="61" fill="none" stroke="#000" stroke-linecap="round" stroke-linejoin="round" stroke-miterlimit="10" stroke-width="1.5"></line>
  <line x1="13.6" x2="21.3" y1="5" y2="5" fill="none" stroke="#000" stroke-linecap="round" stroke-linejoin="round" stroke-miterlimit="10" stroke-width="1.5"></line>
  <line x1="25.7" x2="28.4" y1="5" y2="5" fill="none" stroke="#000" stroke-linecap="round" stroke-linejoin="round" stroke-miterlimit="10" stroke-width="1.5"></line>
  <path fill="none" stroke="#000" stroke-linecap="round" stroke-linejoin="round" stroke-miterlimit="10" stroke-width="1.5" d="M18.4,35.5c1.7,0.4,3.5,0.4,5.2,0c-0.1-1.3,0.4-2.4,1.3-2.8c0.9-0.4,2.1,0.1,2.9,1.1c1.4-0.9,2.7-2.2,3.7-3.6
		c-1-0.8-1.4-1.9-1.1-2.9s1.5-1.4,2.8-1.3c0.4-1.7,0.4-3.5,0-5.2c-1.3,0.1-2.4-0.4-2.8-1.3s0.1-2.1,1.1-2.9
		c-0.9-1.4-2.2-2.7-3.6-3.7c-0.8,1-1.9,1.4-2.9,1.1c-0.9-0.4-1.4-1.5-1.3-2.8c-1.7-0.4-3.5-0.4-5.2,0c0.1,1.3-0.4,2.4-1.3,2.8
		c-0.9,0.4-2.1-0.1-2.9-1.1c-1.4,0.9-2.7,2.2-3.7,3.6c1,0.8,1.4,1.9,1.1,2.9s-1.5,1.4-2.8,1.3c-0.4,1.7-0.4,3.5,0,5.2
		c1.3-0.1,2.4,0.4,2.8,1.3s-0.1,2.1-1.1,2.9c0.9,1.4,2.2,2.7,3.6,3.7c0.8-1,1.9-1.4,2.9-1.1S18.5,34.3,18.4,35.5z"></path>
  <circle cx="21" cy="23.4" r="5.2" fill="none" stroke="#000" stroke-linecap="round" stroke-linejoin="round" stroke-miterlimit="10" stroke-width="1.5"></circle>
  <path fill="none" stroke="#000" stroke-linecap="round" stroke-linejoin="round" stroke-miterlimit="10" stroke-width="1.5" d="M20.5 15.9c-1.8.1-3.5.9-4.8 2.2-1.3 1.3-2.1 3-2.2 4.8M14.8 27.7c.4.6.9 1.1 1.4 1.5"></path>
  <line x1="33.9" x2="33.9" y1="41.7" y2="54.4" fill="none" stroke="#000" stroke-linecap="round" stroke-linejoin="round" stroke-miterlimit="10" stroke-width="1.5"></line>
  <polyline fill="none" stroke="#000" stroke-linecap="round" stroke-linejoin="round" stroke-miterlimit="10" stroke-width="1.5" points="8.1 54.4 13.9 41.7 19.7 54.4"></polyline>
  <line x1="10.6" x2="17.2" y1="48.8" y2="48.8" fill="none" stroke="#000" stroke-linecap="round" stroke-linejoin="round" stroke-miterlimit="10" stroke-width="1.5"></line>
  <line x1="23.4" x2="23.4" y1="41.7" y2="54.4" fill="none" stroke="#000" stroke-linecap="round" stroke-linejoin="round" stroke-miterlimit="10" stroke-width="1.5"></line>
  <path fill="none" stroke="#000" stroke-linecap="round" stroke-linejoin="round" stroke-miterlimit="10" stroke-width="1.5" d="M26.6 48.1h-3.2v-6.4h3.2c1.8 0 3.2 1.4 3.2 3.2l0 0C29.8 46.6 28.3 48.1 26.6 48.1zM62.3 17.3H52.2c-1 0-1.8-.8-1.8-1.8v-9c0-1 .8-1.8 1.8-1.8h10.1c1 0 1.8.8 1.8 1.8v9.1C64 16.5 63.2 17.3 62.3 17.3zM62.3 39.3H52.2c-1 0-1.8-.8-1.8-1.8v-9.1c0-1 .8-1.8 1.8-1.8h10.1c1 0 1.8.8 1.8 1.8v9.1C64 38.5 63.2 39.3 62.3 39.3zM62.3 61.3H52.2c-1 0-1.8-.8-1.8-1.8v-9.1c0-1 .8-1.8 1.8-1.8h10.1c1 0 1.8.8 1.8 1.8v9.1C64 60.5 63.2 61.3 62.3 61.3z"></path>
  <line x1="40" x2="50.5" y1="33" y2="33" fill="none" stroke="#000" stroke-linecap="round" stroke-linejoin="round" stroke-miterlimit="10" stroke-width="1.5"></line>
  <path fill="none" stroke="#000" stroke-linecap="round" stroke-linejoin="round" stroke-miterlimit="10" stroke-width="1.5" d="M50.5,11h-2.6c-1.4,0-2.5,1.1-2.5,2.5v38.9c0,1.4,1.1,2.5,2.5,2.5h2.6"></path>
  <line x1="53.4" x2="58.8" y1="8.9" y2="8.9" fill="none" stroke="#000" stroke-linecap="round" stroke-linejoin="round" stroke-miterlimit="10" stroke-width="1.5"></line>
  <line x1="53.4" x2="61" y1="13.1" y2="13.1" fill="none" stroke="#000" stroke-linecap="round" stroke-linejoin="round" stroke-miterlimit="10" stroke-width="1.5"></line>
  <line x1="53.4" x2="58.8" y1="30.9" y2="30.9" fill="none" stroke="#000" stroke-linecap="round" stroke-linejoin="round" stroke-miterlimit="10" stroke-width="1.5"></line>
  <line x1="53.4" x2="61" y1="35.1" y2="35.1" fill="none" stroke="#000" stroke-linecap="round" stroke-linejoin="round" stroke-miterlimit="10" stroke-width="1.5"></line>
  <line x1="53.4" x2="58.8" y1="52.9" y2="52.9" fill="none" stroke="#000" stroke-linecap="round" stroke-linejoin="round" stroke-miterlimit="10" stroke-width="1.5"></line>
  <line x1="53.4" x2="61" y1="57.1" y2="57.1" fill="none" stroke="#000" stroke-linecap="round" stroke-linejoin="round" stroke-miterlimit="10" stroke-width="1.5"></line>
</svg>
