<svg xmlns="http://www.w3.org/2000/svg" xml:space="preserve" id="code" width="100" height="100" x="0" y="0" enable-background="new 0 0 100 100" version="1.0" viewBox="0 0 100 100">
  <path d="M83.333,10H16.667C13.001,10,10,13.001,10,16.667v66.666C10,86.999,13.001,90,16.667,90h66.666  C86.999,90,90,86.999,90,83.333V16.667C90,13.001,86.999,10,83.333,10z M38.047,58.62l-4.714,4.713L20,50l13.337-13.333l4.713,4.713  L29.427,50L38.047,58.62z M45.413,80l-6.438-1.726L54.587,20l6.438,1.726L45.413,80z M66.663,63.333L61.95,58.62L70.573,50  l-8.62-8.62l4.714-4.713L80,50L66.663,63.333z"></path>
</svg>
