<svg xmlns="http://www.w3.org/2000/svg" enable-background="new 0 0 66 66" viewBox="0 0 66 66" id="web-design">
  <path fill="none" stroke="#000" stroke-linecap="round" stroke-linejoin="round" stroke-miterlimit="10" stroke-width="1.5" d="M53.5,55.1H5.9c-2.2,0-4-1.8-4-4V6.3c0-2.5,2-4.5,4.5-4.5h53c2.5,0,4.6,2,4.6,4.6v44.9c0,1.8-1.2,3.3-2.9,3.8"></path>
  <circle cx="8.9" cy="6.7" r="2" fill="none" stroke="#000" stroke-linecap="round" stroke-linejoin="round" stroke-miterlimit="10" stroke-width="1.5"></circle>
  <circle cx="16.5" cy="6.7" r="2" fill="none" stroke="#000" stroke-linecap="round" stroke-linejoin="round" stroke-miterlimit="10" stroke-width="1.5"></circle>
  <circle cx="24.1" cy="6.7" r="2" fill="none" stroke="#000" stroke-linecap="round" stroke-linejoin="round" stroke-miterlimit="10" stroke-width="1.5"></circle>
  <path fill="none" stroke="#000" stroke-linecap="round" stroke-linejoin="round" stroke-miterlimit="10" stroke-width="1.5" d="M46.8,40.7L56.6,62c1,2.1,3.5,2.9,5.5,1.8l0,0c2-1.1,2.6-3.7,1.3-5.6L50.2,38.8"></path>
  <line x1="52.9" x2="48.8" y1="42.8" y2="45.1" fill="none" stroke="#000" stroke-linecap="round" stroke-linejoin="round" stroke-miterlimit="10" stroke-width="1.5"></line>
  <path fill="none" stroke="#000" stroke-linecap="round" stroke-linejoin="round" stroke-miterlimit="10" stroke-width="1.5" d="M42.4,34.5c-0.8,3.5,2.5,7.4,5.8,6.1c0.1-0.1,0.3-0.1,0.4-0.2c2.6-1.5,2.6-4.2,1.2-6.8s-7.1-5.8-8.5-6.2
		C43,31,42.7,32.9,42.4,34.5z"></path>
  <rect width="53.8" height="5.8" x="6.1" y="13.3" fill="none" stroke="#000" stroke-linecap="round" stroke-linejoin="round" stroke-miterlimit="10" stroke-width="1.5"></rect>
  <path fill="none" stroke="#000" stroke-linecap="round" stroke-linejoin="round" stroke-miterlimit="10" stroke-width="1.5" d="M14 34.6H8.7c-1.1 0-1.9-.9-1.9-1.9v-5.8c0-1.1.9-1.9 1.9-1.9H14c1.1 0 1.9.9 1.9 1.9v5.8C15.9 33.8 15.1 34.6 14 34.6zM14 50H8.7c-1.1 0-1.9-.9-1.9-1.9v-5.8c0-1.1.9-1.9 1.9-1.9H14c1.1 0 1.9.9 1.9 1.9v5.8C15.9 49.1 15.1 50 14 50z"></path>
  <line x1="20.9" x2="28.4" y1="25" y2="25" fill="none" stroke="#000" stroke-linecap="round" stroke-linejoin="round" stroke-miterlimit="10" stroke-width="1.5"></line>
  <line x1="20.9" x2="36.4" y1="29.8" y2="29.8" fill="none" stroke="#000" stroke-linecap="round" stroke-linejoin="round" stroke-miterlimit="10" stroke-width="1.5"></line>
  <line x1="20.9" x2="36.4" y1="34.6" y2="34.6" fill="none" stroke="#000" stroke-linecap="round" stroke-linejoin="round" stroke-miterlimit="10" stroke-width="1.5"></line>
  <line x1="20.9" x2="28.4" y1="40.4" y2="40.4" fill="none" stroke="#000" stroke-linecap="round" stroke-linejoin="round" stroke-miterlimit="10" stroke-width="1.5"></line>
  <line x1="20.9" x2="36.4" y1="45.2" y2="45.2" fill="none" stroke="#000" stroke-linecap="round" stroke-linejoin="round" stroke-miterlimit="10" stroke-width="1.5"></line>
  <line x1="20.9" x2="36.4" y1="50" y2="50" fill="none" stroke="#000" stroke-linecap="round" stroke-linejoin="round" stroke-miterlimit="10" stroke-width="1.5"></line>
  <line x1="60.9" x2="56.1" y1="59.1" y2="52" fill="none" stroke="#000" stroke-linecap="round" stroke-linejoin="round" stroke-miterlimit="10" stroke-width="1.5"></line>
  <line x1="53.8" x2="52.8" y1="48.5" y2="47.1" fill="none" stroke="#000" stroke-linecap="round" stroke-linejoin="round" stroke-miterlimit="10" stroke-width="1.5"></line>
</svg>
