<svg xmlns="http://www.w3.org/2000/svg" enable-background="new 0 0 66 66" viewBox="0 0 66 66" id="cloud-computing">
  <path fill="none" stroke="#000" stroke-linecap="round" stroke-linejoin="round" stroke-miterlimit="10" stroke-width="1.5" d="M54.5,38.4c5.4-0.3,9.7-4.8,9.7-10.2c0-5.7-4.6-10.3-10.2-10.3h-0.1c0.4-1.2,0.6-2.5,0.6-3.9
		c0-6.8-5.5-12.3-12.2-12.3c-6.2,0-11.3,4.6-12.1,10.6c-0.1,0.5-0.1,0-0.1,0c-1.7-2.5-4.6-4.2-8-4.2c-5.3,0-9.6,4.3-9.6,9.7h-0.4
		c-5.6,0-10.2,4.6-10.2,10.3c0,5.4,4.3,9.9,9.6,10.2"></path>
  <path fill="none" stroke="#000" stroke-linecap="round" stroke-linejoin="round" stroke-miterlimit="10" stroke-width="1.5" d="M51.4 14.4c.2-2.5-.8-4.9-2.5-6.7s-4.1-2.9-6.5-2.9M36.1 7.2c-.7.7-1.3 1.4-1.8 2.3M53.1 34H12.9c-.9 0-1.7-.8-1.7-1.7v-8.1c0-.9.8-1.7 1.7-1.7h40.2c.9 0 1.7.8 1.7 1.7v8.1C54.8 33.2 54 34 53.1 34z"></path>
  <rect width="3.3" height="4.8" x="14.6" y="25.9" fill="none" stroke="#000" stroke-linecap="round" stroke-linejoin="round" stroke-miterlimit="10" stroke-width="1.5"></rect>
  <rect width="3.3" height="4.8" x="20.5" y="25.9" fill="none" stroke="#000" stroke-linecap="round" stroke-linejoin="round" stroke-miterlimit="10" stroke-width="1.5"></rect>
  <rect width="3.3" height="4.8" x="26.5" y="25.9" fill="none" stroke="#000" stroke-linecap="round" stroke-linejoin="round" stroke-miterlimit="10" stroke-width="1.5"></rect>
  <line x1="37.1" x2="38.7" y1="26.9" y2="26.9" fill="none" stroke="#000" stroke-linecap="round" stroke-linejoin="round" stroke-miterlimit="10" stroke-width="1.5"></line>
  <line x1="41.1" x2="42.6" y1="26.9" y2="26.9" fill="none" stroke="#000" stroke-linecap="round" stroke-linejoin="round" stroke-miterlimit="10" stroke-width="1.5"></line>
  <line x1="33.2" x2="34.7" y1="26.9" y2="26.9" fill="none" stroke="#000" stroke-linecap="round" stroke-linejoin="round" stroke-miterlimit="10" stroke-width="1.5"></line>
  <line x1="33.2" x2="34.7" y1="29.6" y2="29.6" fill="none" stroke="#000" stroke-linecap="round" stroke-linejoin="round" stroke-miterlimit="10" stroke-width="1.5"></line>
  <line x1="37.1" x2="38.7" y1="29.6" y2="29.6" fill="none" stroke="#000" stroke-linecap="round" stroke-linejoin="round" stroke-miterlimit="10" stroke-width="1.5"></line>
  <line x1="41.1" x2="42.6" y1="29.6" y2="29.6" fill="none" stroke="#000" stroke-linecap="round" stroke-linejoin="round" stroke-miterlimit="10" stroke-width="1.5"></line>
  <path fill="none" stroke="#000" stroke-linecap="round" stroke-linejoin="round" stroke-miterlimit="10" stroke-width="1.5" d="M51.4 28.3c0 1.5-1.2 2.7-2.7 2.7S46 29.8 46 28.3s1.2-2.7 2.7-2.7S51.4 26.8 51.4 28.3zM53.1 49.1H12.9c-.9 0-1.7-.8-1.7-1.7v-8.1c0-.9.8-1.7 1.7-1.7h40.2c.9 0 1.7.8 1.7 1.7v8.1C54.8 48.4 54 49.1 53.1 49.1z"></path>
  <rect width="3.3" height="4.8" x="14.6" y="41" fill="none" stroke="#000" stroke-linecap="round" stroke-linejoin="round" stroke-miterlimit="10" stroke-width="1.5"></rect>
  <rect width="3.3" height="4.8" x="20.5" y="41" fill="none" stroke="#000" stroke-linecap="round" stroke-linejoin="round" stroke-miterlimit="10" stroke-width="1.5"></rect>
  <rect width="3.3" height="4.8" x="26.5" y="41" fill="none" stroke="#000" stroke-linecap="round" stroke-linejoin="round" stroke-miterlimit="10" stroke-width="1.5"></rect>
  <line x1="37.1" x2="38.7" y1="42" y2="42" fill="none" stroke="#000" stroke-linecap="round" stroke-linejoin="round" stroke-miterlimit="10" stroke-width="1.5"></line>
  <line x1="41.1" x2="42.6" y1="42" y2="42" fill="none" stroke="#000" stroke-linecap="round" stroke-linejoin="round" stroke-miterlimit="10" stroke-width="1.5"></line>
  <line x1="33.2" x2="34.7" y1="42" y2="42" fill="none" stroke="#000" stroke-linecap="round" stroke-linejoin="round" stroke-miterlimit="10" stroke-width="1.5"></line>
  <line x1="33.2" x2="34.7" y1="44.8" y2="44.8" fill="none" stroke="#000" stroke-linecap="round" stroke-linejoin="round" stroke-miterlimit="10" stroke-width="1.5"></line>
  <line x1="37.1" x2="38.7" y1="44.8" y2="44.8" fill="none" stroke="#000" stroke-linecap="round" stroke-linejoin="round" stroke-miterlimit="10" stroke-width="1.5"></line>
  <line x1="41.1" x2="42.6" y1="44.8" y2="44.8" fill="none" stroke="#000" stroke-linecap="round" stroke-linejoin="round" stroke-miterlimit="10" stroke-width="1.5"></line>
  <path fill="none" stroke="#000" stroke-linecap="round" stroke-linejoin="round" stroke-miterlimit="10" stroke-width="1.5" d="M51.4 43.4c0 1.5-1.2 2.7-2.7 2.7S46 44.9 46 43.4s1.2-2.7 2.7-2.7S51.4 41.9 51.4 43.4zM53.1 64.3H12.9c-.9 0-1.7-.8-1.7-1.7v-8.1c0-.9.8-1.7 1.7-1.7h40.2c.9 0 1.7.8 1.7 1.7v8.1C54.8 63.5 54 64.3 53.1 64.3z"></path>
  <rect width="3.3" height="4.8" x="14.6" y="56.1" fill="none" stroke="#000" stroke-linecap="round" stroke-linejoin="round" stroke-miterlimit="10" stroke-width="1.5"></rect>
  <rect width="3.3" height="4.8" x="20.5" y="56.1" fill="none" stroke="#000" stroke-linecap="round" stroke-linejoin="round" stroke-miterlimit="10" stroke-width="1.5"></rect>
  <rect width="3.3" height="4.8" x="26.5" y="56.1" fill="none" stroke="#000" stroke-linecap="round" stroke-linejoin="round" stroke-miterlimit="10" stroke-width="1.5"></rect>
  <line x1="37.1" x2="38.7" y1="57.1" y2="57.1" fill="none" stroke="#000" stroke-linecap="round" stroke-linejoin="round" stroke-miterlimit="10" stroke-width="1.5"></line>
  <line x1="41.1" x2="42.6" y1="57.1" y2="57.1" fill="none" stroke="#000" stroke-linecap="round" stroke-linejoin="round" stroke-miterlimit="10" stroke-width="1.5"></line>
  <line x1="33.2" x2="34.7" y1="57.1" y2="57.1" fill="none" stroke="#000" stroke-linecap="round" stroke-linejoin="round" stroke-miterlimit="10" stroke-width="1.5"></line>
  <line x1="33.2" x2="34.7" y1="59.9" y2="59.9" fill="none" stroke="#000" stroke-linecap="round" stroke-linejoin="round" stroke-miterlimit="10" stroke-width="1.5"></line>
  <line x1="37.1" x2="38.7" y1="59.9" y2="59.9" fill="none" stroke="#000" stroke-linecap="round" stroke-linejoin="round" stroke-miterlimit="10" stroke-width="1.5"></line>
  <line x1="41.1" x2="42.6" y1="59.9" y2="59.9" fill="none" stroke="#000" stroke-linecap="round" stroke-linejoin="round" stroke-miterlimit="10" stroke-width="1.5"></line>
  <path fill="none" stroke="#000" stroke-linecap="round" stroke-linejoin="round" stroke-miterlimit="10" stroke-width="1.5" d="M51.4,58.5c0,1.5-1.2,2.7-2.7,2.7S46,60,46,58.5s1.2-2.7,2.7-2.7S51.4,57,51.4,58.5z"></path>
  <g>
    <line x1="47.2" x2="47.2" y1="34" y2="37.7" fill="none" stroke="#000" stroke-linecap="round" stroke-linejoin="round" stroke-miterlimit="10" stroke-width="1.5"></line>
    <line x1="18.8" x2="18.8" y1="37.7" y2="34" fill="none" stroke="#000" stroke-linecap="round" stroke-linejoin="round" stroke-miterlimit="10" stroke-width="1.5"></line>
    <line x1="47.2" x2="47.2" y1="49.1" y2="52.8" fill="none" stroke="#000" stroke-linecap="round" stroke-linejoin="round" stroke-miterlimit="10" stroke-width="1.5"></line>
    <line x1="18.8" x2="18.8" y1="52.8" y2="49.1" fill="none" stroke="#000" stroke-linecap="round" stroke-linejoin="round" stroke-miterlimit="10" stroke-width="1.5"></line>
  </g>
</svg>
