<svg xmlns="http://www.w3.org/2000/svg" enable-background="new 0 0 66 66" viewBox="0 0 66 66" id="programming-languages">
  <path fill="none" stroke="#000" stroke-linecap="round" stroke-linejoin="round" stroke-miterlimit="10" stroke-width="1.5" d="M48.4 10.6c-6.2.6-11.3 5.6-12 11.8-.3 2.9.3 5.7 1.6 8 .3.5.3 1 .2 1.5L37.8 34c-.3 1.6 1.1 3 2.7 2.7l2.8-.5c.4-.1.9 0 1.3.2 1.8.7 3.8 1.1 6 .9 7-.5 12.5-6.6 12.4-13.6C62.9 16 56.3 9.9 48.4 10.6zM18.6 1.8c7 .7 12.8 6.3 13.5 13.4.4 3.3-.4 6.4-1.8 9.1C30 24.8 29.9 25.4 30 26l.4 2.3c.3 1.8-1.2 3.4-3 3l-3.2-.6c-.5-.1-1 0-1.5.2-2.1.8-4.3 1.2-6.7 1.1C8 31.4 1.8 24.5 1.9 16.6 2.1 7.9 9.7 1 18.6 1.8zM25.6 8.3c-2.4-2.5-6-3.8-9.4-3.5M11.5 6.1c-.6.3-1.2.7-1.7 1.1"></path>
  <path fill="none" stroke="#000" stroke-linecap="round" stroke-linejoin="round" stroke-miterlimit="10" stroke-width="1.5" d="M10.5 22.5c-.4 0-.7-.1-1-.4L5.4 18C5.1 17.7 5 17.3 5 17c0-.4.1-.7.4-1l4.1-4.1c.5-.5 1.4-.5 2 0 .5.5.5 1.4 0 2L8.4 17l3.1 3.1c.5.5.5 1.4 0 2C11.3 22.4 10.9 22.5 10.5 22.5zM23.6 22.5c-.4 0-.7-.1-1-.4-.5-.5-.5-1.4 0-2l3.1-3.1-3.1-3.1c-.5-.5-.5-1.4 0-2 .5-.5 1.4-.5 2 0l4.1 4.1c.3.3.4.6.4 1s-.1.7-.4 1l-4.1 4.1C24.3 22.4 23.9 22.5 23.6 22.5zM16 24.1c-.1 0-.2 0-.3 0-.8-.1-1.3-.9-1.1-1.6l2.2-11.7c.1-.8.9-1.3 1.6-1.1.8.1 1.3.9 1.1 1.6L17.4 23C17.2 23.7 16.6 24.1 16 24.1zM46.6 32h-2.7c-.8 0-1.4-.6-1.4-1.4v-3.9L40.8 25c-.6-.6-.6-1.5 0-2l1.7-1.7v-3.9c0-.8.6-1.4 1.4-1.4h2.7c.8 0 1.4.6 1.4 1.4s-.6 1.4-1.4 1.4h-1.3v3c0 .4-.2.8-.4 1L43.8 24l1.1 1.1c.3.3.4.6.4 1v3h1.3c.8 0 1.4.6 1.4 1.4C48.1 31.3 47.4 32 46.6 32zM55.5 32h-2.7c-.8 0-1.4-.6-1.4-1.4s.6-1.4 1.4-1.4h1.3v-3c0-.4.2-.8.4-1l1.1-1.1L54.5 23c-.3-.3-.4-.6-.4-1v-3h-1.3c-.8 0-1.4-.6-1.4-1.4s.6-1.4 1.4-1.4h2.7c.8 0 1.4.6 1.4 1.4v3.9l1.7 1.7c.6.6.6 1.5 0 2L57 26.7v3.9C57 31.3 56.3 32 55.5 32zM23.8 64.2c6.6-.7 11.9-6 12.6-12.5.3-3.1-.4-6-1.7-8.5-.3-.5-.4-1-.3-1.6l.4-2.2c.3-1.7-1.2-3.1-2.8-2.8l-3 .6c-.5.1-1 0-1.4-.2-1.9-.8-4.1-1.1-6.3-1C13.8 36.5 8 43 8.1 50.4 8.3 58.6 15.4 65 23.8 64.2z"></path>
  <path fill="none" stroke="#000" stroke-linecap="round" stroke-linejoin="round" stroke-miterlimit="10" stroke-width="1.5" d="M13 56.1c1.2 1.9 3 3.4 5 4.2 2 .9 4.3 1.1 6.5.7M30 58.1c.6-.6 1.2-1.3 1.7-2M51.8 64.2c-5.2-.5-9.4-4.7-10-9.9-.3-2.4.3-4.8 1.4-6.7.2-.4.3-.8.2-1.3l-.3-1.7c-.2-1.3.9-2.5 2.2-2.2l2.4.4c.4.1.8 0 1.1-.1 1.5-.6 3.2-.9 5-.8 5.9.4 10.5 5.5 10.3 11.4C63.9 59.8 58.3 64.9 51.8 64.2zM59.3 48c-1.5-1.9-3.8-3.1-6.2-3.1M49.8 45.5c-.4.2-.9.3-1.4.3M19.6 48.8h-2.3v-2.3c0-.7-.6-1.3-1.3-1.3-.7 0-1.3.6-1.3 1.3v2.3h-2.3c-.7 0-1.3.6-1.3 1.3s.6 1.3 1.3 1.3h2.3v2.3c0 .7.6 1.3 1.3 1.3.7 0 1.3-.6 1.3-1.3v-2.3h2.3c.7 0 1.3-.6 1.3-1.3C20.9 49.4 20.3 48.8 19.6 48.8zM32.2 48.8h-2.3v-2.3c0-.7-.6-1.3-1.3-1.3-.7 0-1.3.6-1.3 1.3v2.3H25c-.7 0-1.3.6-1.3 1.3s.6 1.3 1.3 1.3h2.3v2.3c0 .7.6 1.3 1.3 1.3.7 0 1.3-.6 1.3-1.3v-2.3h2.3c.7 0 1.3-.6 1.3-1.3C33.5 49.4 32.9 48.8 32.2 48.8z"></path>
  <circle cx="46.7" cy="53.1" r="1.9" fill="none" stroke="#000" stroke-linecap="round" stroke-linejoin="round" stroke-miterlimit="10" stroke-width="1.5"></circle>
  <circle cx="52.9" cy="53.1" r="1.9" fill="none" stroke="#000" stroke-linecap="round" stroke-linejoin="round" stroke-miterlimit="10" stroke-width="1.5"></circle>
  <path fill="none" stroke="#000" stroke-linecap="round" stroke-linejoin="round" stroke-miterlimit="10" stroke-width="1.5" d="M61,53.1c0,1.1-0.9,1.9-1.9,1.9c-1.1,0-1.9-0.9-1.9-1.9c0-1.1,0.9-1.9,1.9-1.9C60.2,51.2,61,52,61,53.1z"></path>
</svg>
